<?xml version="1.0" encoding="UTF-8" standalone="no"?>
<svg
   enable-background="new 0 0 68 68"
   viewBox="0 0 64 64"
   id="film-reel"
   version="1.1"
   sodipodi:docname="com.MLSTidbits.Reel.svg"
   inkscape:version="1.2.2 (b0a8486541, 2022-12-01)"
   width="64"
   height="64"
   xmlns:inkscape="http://www.inkscape.org/namespaces/inkscape"
   xmlns:sodipodi="http://sodipodi.sourceforge.net/DTD/sodipodi-0.dtd"
   xmlns:xlink="http://www.w3.org/1999/xlink"
   xmlns="http://www.w3.org/2000/svg"
   xmlns:svg="http://www.w3.org/2000/svg">
  <defs
     id="defs15">
    <linearGradient
       inkscape:collect="always"
       id="linearGradient1006">
      <stop
         style="stop-color:#4d4d4d;stop-opacity:1;"
         offset="0"
         id="stop1002" />
      <stop
         style="stop-color:#4d4d4d;stop-opacity:0;"
         offset="1"
         id="stop1004" />
    </linearGradient>
    <linearGradient
       inkscape:collect="always"
       id="linearGradient998">
      <stop
         style="stop-color:#999999;stop-opacity:0.25;"
         offset="0"
         id="stop994" />
      <stop
         style="stop-color:#999999;stop-opacity:1;"
         offset="1"
         id="stop996" />
    </linearGradient>
    <linearGradient
       inkscape:collect="always"
       id="linearGradient990">
      <stop
         style="stop-color:#5fd35f;stop-opacity:0;"
         offset="0"
         id="stop986" />
      <stop
         style="stop-color:#5fd35f;stop-opacity:1;"
         offset="1"
         id="stop988" />
    </linearGradient>
    <linearGradient
       inkscape:collect="always"
       xlink:href="#linearGradient990"
       id="linearGradient992"
       x1="2"
       y1="30.590799"
       x2="59.172798"
       y2="30.590799"
       gradientUnits="userSpaceOnUse" />
    <linearGradient
       inkscape:collect="always"
       xlink:href="#linearGradient998"
       id="linearGradient1000"
       x1="25.215252"
       y1="51.058964"
       x2="61.48304"
       y2="51.058964"
       gradientUnits="userSpaceOnUse" />
    <linearGradient
       inkscape:collect="always"
       xlink:href="#linearGradient1006"
       id="linearGradient1008"
       x1="46.198715"
       y1="44.818485"
       x2="84.208458"
       y2="44.818485"
       gradientUnits="userSpaceOnUse"
       gradientTransform="translate(-34.617197,-14.227687)" />
  </defs>
  <sodipodi:namedview
     id="namedview13"
     pagecolor="#505050"
     bordercolor="#ffffff"
     borderopacity="1"
     inkscape:showpageshadow="0"
     inkscape:pageopacity="0"
     inkscape:pagecheckerboard="1"
     inkscape:deskcolor="#505050"
     showgrid="false"
     inkscape:zoom="11.544118"
     inkscape:cx="35.169427"
     inkscape:cy="34.086624"
     inkscape:window-width="1920"
     inkscape:window-height="995"
     inkscape:window-x="0"
     inkscape:window-y="0"
     inkscape:window-maximized="1"
     inkscape:current-layer="film-reel" />
  <g
     id="g1055"
     transform="matrix(1.0759369,0,0,1.1192384,-2.1518728,-2.238398)">
    <path
       fill="#4c4947"
       d="m 60.482661,58.271905 c -0.53955,0 -0.98389,-0.43066 -0.99902,-0.97266 -0.0024,-0.0791 -0.27343,-7.96973 -4.63281,-10.59863 -2.23047,-1.34473 -5.25537,-1.09473 -8.98828,0.74512 -8.77539,4.32324 -19.43896,1.74512 -19.88867,1.63281 -0.53564,-0.13379 -0.86182,-0.67578 -0.729,-1.21094 0.13281,-0.53613 0.67578,-0.85938 1.21094,-0.73047 0.10205,0.02637 10.4126,2.50879 18.52295,-1.48633 4.38623,-2.16016 8.05713,-2.38281 10.91016,-0.65918 5.29443,3.19727 5.58398,11.88574 5.59375,12.25391 0.01465,0.55176 -0.42041,1.01074 -0.97217,1.02539 -0.0093,0 -0.01857,9.8e-4 -0.02785,9.8e-4 z"
       id="path2"
       style="fill:url(#linearGradient1000);fill-opacity:1" />
    <path
       fill="#c9eaf5"
       d="m 49.59126,30.59083 c 0,10.49353 -8.51618,18.99997 -19.00977,18.99997 -10.49353,0 -18.99997,-8.50644 -18.99997,-18.99997 0,-10.49359 8.50644,-19.00003 18.99997,-19.00003 10.49359,0 19.00977,8.50644 19.00977,19.00003 z"
       id="path4-5"
       style="fill:#deaa87;fill-opacity:1" />
    <path
       fill="#c9eaf5"
       d="m 49.59126,30.59083 c 0,10.49353 -8.51618,18.99997 -19.00977,18.99997 -10.49353,0 -18.99997,-8.50644 -18.99997,-18.99997 0,-10.49359 8.50644,-19.00003 18.99997,-19.00003 10.49359,0 19.00977,8.50644 19.00977,19.00003 z"
       id="path4"
       style="fill:url(#linearGradient1008);fill-opacity:1" />
    <path
       fill="#666"
       d="M 30.59528,1.99993 C 14.81025,1.99993 2,14.80129 2,30.58633 c 0,15.78504 12.81025,28.59534 28.59529,28.59534 15.78509,0 28.57751,-12.8103 28.57751,-28.59534 0,-15.78504 -12.79243,-28.5864 -28.57752,-28.5864 z m 7.33422,17.87544 1.97427,-6.98581 c 0.57169,-2.00104 3.09087,-2.66209 4.56488,-1.18814 l 5.0026,5.01159 c 1.48295,1.47395 0.8219,3.99314 -1.1792,4.55594 L 41.3063,23.2521 c -2.0547,0.58069 -3.95748,-1.32209 -3.3768,-3.37673 z M 7.42243,34.12391 v -7.07517 c 0,-2.09035 2.24225,-3.40357 4.06467,-2.38516 l 6.33364,3.53759 c 1.86707,1.04518 1.86707,3.72515 0,4.77032 L 11.4871,36.50908 C 9.66469,37.52748 7.42243,36.21426 7.42243,34.12391 Z m 15.82975,7.17337 -1.98321,6.98581 c -0.5628,2.00998 -3.08193,2.66209 -4.55593,1.18814 L 11.7015,44.46857 c -1.47401,-1.47395 -0.81296,-3.99313 1.18808,-4.56488 l 6.98581,-1.97421 c 2.05468,-0.58962 3.95742,1.31317 3.37679,3.3678 z m -3.3768,-18.05406 -6.98581,-1.97427 c -2.00104,-0.5628 -2.66209,-3.08198 -1.18808,-4.55594 l 5.01154,-5.01159 c 1.47401,-1.47395 3.99314,-0.82184 4.55593,1.18814 l 1.98321,6.98581 c 0.58064,2.05464 -1.31321,3.95742 -3.37679,3.36785 z m 14.25749,30.51596 h -7.08406 c -2.08146,0 -3.40357,-2.2512 -2.38516,-4.06462 l 3.53753,-6.34264 c 1.04523,-1.86702 3.7252,-1.86702 4.77038,0 l 3.54647,6.3337 c 1.0184,1.82236 -0.3037,4.07356 -2.38516,4.07356 z m 2.38516,-42.27214 -3.53753,6.3337 c -1.04523,1.86702 -3.73409,1.86702 -4.77038,0 l -3.54647,-6.3337 c -1.0184,-1.82236 0.3037,-4.06462 2.38516,-4.06462 h 7.08406 c 2.08146,0 3.40356,2.24225 2.38516,4.06462 z m 12.95321,32.98153 -5.0026,5.00266 c -1.47401,1.47395 -3.99319,0.82184 -4.56488,-1.18814 l -1.97427,-6.97687 c -0.58068,-2.06358 1.31316,-3.95742 3.36786,-3.37674 l 6.98581,1.97421 c 2.00998,0.57175 2.67103,3.09093 1.18808,4.56488 z m 0.22333,-7.95055 -6.33364,-3.54653 c -1.86707,-1.03623 -1.87601,-3.72515 -0.0089,-4.77032 l 6.34259,-3.53759 c 1.82242,-1.0184 4.06462,0.29481 4.06462,2.38516 v 7.07517 c -10e-6,2.09035 -2.24221,3.40357 -4.06463,2.39411 z"
       id="path6"
       style="fill:#37c8ab;fill-opacity:1" />
    <path
       fill="#666"
       d="M 30.59528,1.99993 C 14.81025,1.99993 2,14.80129 2,30.58633 c 0,15.78504 12.81025,28.59534 28.59529,28.59534 15.78509,0 28.57751,-12.8103 28.57751,-28.59534 0,-15.78504 -12.79243,-28.5864 -28.57752,-28.5864 z m 7.33422,17.87544 1.97427,-6.98581 c 0.57169,-2.00104 3.09087,-2.66209 4.56488,-1.18814 l 5.0026,5.01159 c 1.48295,1.47395 0.8219,3.99314 -1.1792,4.55594 L 41.3063,23.2521 c -2.0547,0.58069 -3.95748,-1.32209 -3.3768,-3.37673 z M 7.42243,34.12391 v -7.07517 c 0,-2.09035 2.24225,-3.40357 4.06467,-2.38516 l 6.33364,3.53759 c 1.86707,1.04518 1.86707,3.72515 0,4.77032 L 11.4871,36.50908 C 9.66469,37.52748 7.42243,36.21426 7.42243,34.12391 Z m 15.82975,7.17337 -1.98321,6.98581 c -0.5628,2.00998 -3.08193,2.66209 -4.55593,1.18814 L 11.7015,44.46857 c -1.47401,-1.47395 -0.81296,-3.99313 1.18808,-4.56488 l 6.98581,-1.97421 c 2.05468,-0.58962 3.95742,1.31317 3.37679,3.3678 z m -3.3768,-18.05406 -6.98581,-1.97427 c -2.00104,-0.5628 -2.66209,-3.08198 -1.18808,-4.55594 l 5.01154,-5.01159 c 1.47401,-1.47395 3.99314,-0.82184 4.55593,1.18814 l 1.98321,6.98581 c 0.58064,2.05464 -1.31321,3.95742 -3.37679,3.36785 z m 14.25749,30.51596 h -7.08406 c -2.08146,0 -3.40357,-2.2512 -2.38516,-4.06462 l 3.53753,-6.34264 c 1.04523,-1.86702 3.7252,-1.86702 4.77038,0 l 3.54647,6.3337 c 1.0184,1.82236 -0.3037,4.07356 -2.38516,4.07356 z m 2.38516,-42.27214 -3.53753,6.3337 c -1.04523,1.86702 -3.73409,1.86702 -4.77038,0 l -3.54647,-6.3337 c -1.0184,-1.82236 0.3037,-4.06462 2.38516,-4.06462 h 7.08406 c 2.08146,0 3.40356,2.24225 2.38516,4.06462 z m 12.95321,32.98153 -5.0026,5.00266 c -1.47401,1.47395 -3.99319,0.82184 -4.56488,-1.18814 l -1.97427,-6.97687 c -0.58068,-2.06358 1.31316,-3.95742 3.36786,-3.37674 l 6.98581,1.97421 c 2.00998,0.57175 2.67103,3.09093 1.18808,4.56488 z m 0.22333,-7.95055 -6.33364,-3.54653 c -1.86707,-1.03623 -1.87601,-3.72515 -0.0089,-4.77032 l 6.34259,-3.53759 c 1.82242,-1.0184 4.06462,0.29481 4.06462,2.38516 v 7.07517 c -10e-6,2.09035 -2.24221,3.40357 -4.06463,2.39411 z"
       id="path6-3"
       style="fill:url(#linearGradient992);fill-opacity:1" />
    <path
       fill="#595857"
       d="m 36.0878,30.59081 c 0,3.0376 -2.46521,5.49999 -5.50283,5.49999 -3.0376,0 -5.49999,-2.46239 -5.49999,-5.49999 0,-3.03762 2.46239,-5.50001 5.49999,-5.50001 3.03762,0 5.50283,2.46239 5.50283,5.50001 z"
       id="path8"
       style="fill:#373748" />
    <path
       fill="#fff"
       d="m 22.69275,28.2172 c -0.05664,0 -0.11475,-0.0098 -0.1709,-0.03027 -0.25977,-0.09473 -0.39355,-0.38184 -0.29883,-0.64063 1.2749,-3.50098 4.63525,-5.85254 8.36182,-5.85254 0.27637,0 0.5,0.22363 0.5,0.5 0,0.27637 -0.22363,0.5 -0.5,0.5 -3.30762,0 -6.29053,2.08789 -7.42236,5.19434 -0.07373,0.20313 -0.26563,0.3291 -0.46973,0.3291 z m -0.50439,2.87403 c -0.27637,0 -0.5,-0.22363 -0.5,-0.5 0,-0.28027 0.0127,-0.55762 0.03809,-0.83008 0.02588,-0.27539 0.26367,-0.46875 0.54443,-0.45215 0.2749,0.02539 0.47705,0.26953 0.45166,0.54395 -0.02246,0.24316 -0.03418,0.48926 -0.03418,0.73828 0,0.27636 -0.22363,0.5 -0.5,0.5 z"
       opacity="0.5"
       id="path10"
       style="fill:#afe9dd" />
  </g>
</svg>
